<svg width="197" height="196" viewBox="0 0 197 196" fill="none" xmlns="http://www.w3.org/2000/svg">
<g id="Frame">
<g id="Group">
<path id="Vector" d="M86.7381 146.489H84.8681H77.5956L92.5561 117.399C93.1795 116.152 93.8028 114.697 94.0106 113.243C95.8807 104.308 90.2705 95.3734 81.1279 93.5033C72.1931 91.6332 63.2583 97.2434 61.3883 106.386L51.4145 153.346L51.2067 154.8C50.999 155.423 50.999 156.255 50.999 156.878C50.999 162.488 55.5703 167.059 61.1805 167.059H72.1931L66.1673 191.994C65.9595 192.825 66.3751 193.864 66.9985 194.487C68.0374 195.318 69.4919 195.111 70.323 194.072L94.0106 161.241C95.0495 159.787 95.6729 157.917 95.6729 155.839C95.8807 150.644 91.725 146.489 86.7381 146.489Z" fill="url(#paint0_linear_671_1597)"/>
<path id="Vector_2" d="M137.854 146.489H135.983H128.711L143.672 117.399C144.295 116.152 144.918 114.697 145.126 113.243C146.996 104.308 141.386 95.3734 132.243 93.5033C123.309 91.6332 114.374 97.2434 112.504 106.386L102.53 153.346L102.114 154.8C101.907 155.423 101.907 156.255 101.907 156.878C101.907 162.488 106.478 167.059 112.088 167.059H123.101L117.075 191.994C116.867 192.825 117.283 193.864 117.906 194.487C118.945 195.318 120.4 195.111 121.231 194.072L144.918 161.241C145.957 159.787 146.581 157.917 146.581 155.839C146.996 150.644 142.84 146.489 137.854 146.489Z" fill="url(#paint1_linear_671_1597)"/>
<g id="Group_2">
<g id="Group_3">
<path id="Vector_3" d="M154.476 52.1543C152.398 23.0642 128.087 0 98.5815 0C68.8681 0 44.5572 23.0642 42.6871 52.1543C20.6618 53.1932 3 71.4783 3 93.9192C3 116.983 21.7007 135.684 44.7649 135.684H152.606C175.67 135.684 194.371 116.983 194.371 93.9192C194.371 71.4783 176.709 53.401 154.476 52.1543Z" fill="url(#paint2_radial_671_1597)"/>
<path id="Vector_4" opacity="0.6" d="M102.529 57.3485C86.7377 44.6736 80.7119 25.1417 88.8155 13.9212C96.9192 2.70078 116.451 3.94754 132.035 16.6225C147.827 29.2974 153.853 48.8293 145.749 60.0497C137.645 71.4779 118.321 70.2312 102.529 57.3485Z" fill="url(#paint3_radial_671_1597)"/>
<path id="Vector_5" opacity="0.4" d="M154.891 95.1666C142.424 85.1929 137.645 69.8168 144.086 61.0898C150.527 52.3628 165.696 53.1939 178.163 63.3754C190.63 73.3491 195.409 88.7253 188.968 97.4523C182.526 106.179 167.15 105.14 154.891 95.1666Z" fill="url(#paint4_radial_671_1597)"/>
<path id="Vector_6" opacity="0.2" d="M32.7133 96.6206C23.5707 82.2834 12.9737 75.4264 9.02573 81.2444C5.0778 87.0625 9.23351 103.27 18.3761 117.399C27.5187 131.736 38.1157 138.593 42.0637 132.775C46.0116 126.957 41.8559 110.75 32.7133 96.6206Z" fill="url(#paint5_radial_671_1597)"/>
</g>
</g>
</g>
</g>
<defs>
<linearGradient id="paint0_linear_671_1597" x1="59.1282" y1="193.118" x2="83.074" y2="117.714" gradientUnits="userSpaceOnUse">
<stop offset="0.1559" stop-color="#FFE036"/>
<stop offset="1" stop-color="#FA761C"/>
</linearGradient>
<linearGradient id="paint1_linear_671_1597" x1="110.284" y1="193.119" x2="134.23" y2="117.714" gradientUnits="userSpaceOnUse">
<stop offset="0.1559" stop-color="#FFE036"/>
<stop offset="1" stop-color="#FA761C"/>
</linearGradient>
<radialGradient id="paint2_radial_671_1597" cx="0" cy="0" r="1" gradientUnits="userSpaceOnUse" gradientTransform="translate(122.727 28.5765) rotate(180) scale(145.982 106.64)">
<stop stop-color="#B6CCD2"/>
<stop offset="0.198" stop-color="#97B6BE"/>
<stop offset="1" stop-color="#5D87B4"/>
</radialGradient>
<radialGradient id="paint3_radial_671_1597" cx="0" cy="0" r="1" gradientUnits="userSpaceOnUse" gradientTransform="translate(117.306 37.0896) rotate(126.034) scale(25.1246 36.6521)">
<stop stop-color="white"/>
<stop offset="1" stop-color="white" stop-opacity="0"/>
</radialGradient>
<radialGradient id="paint4_radial_671_1597" cx="0" cy="0" r="1" gradientUnits="userSpaceOnUse" gradientTransform="translate(166.483 79.1877) rotate(126.034) scale(19.7455 28.805)">
<stop stop-color="white"/>
<stop offset="1" stop-color="white" stop-opacity="0"/>
</radialGradient>
<radialGradient id="paint5_radial_671_1597" cx="0" cy="0" r="1" gradientUnits="userSpaceOnUse" gradientTransform="translate(25.643 107.004) rotate(-25.7092) scale(10.1212 29.4635)">
<stop stop-color="white"/>
<stop offset="1" stop-color="white" stop-opacity="0"/>
</radialGradient>
</defs>
</svg>
